<svg id="Layer_1" data-name="Layer 1" xmlns="http://www.w3.org/2000/svg" viewBox="0 0 92.82 99.9"><defs><style>.cls-1{fill:#ff385c;}</style></defs><title>favicon</title><path class="cls-1" d="M91.51,71c-.5-1.2-1-2.5-1.5-3.6-.8-1.8-1.6-3.5-2.3-5.1l-.1-.1c-6.9-15-14.3-30.2-22.1-45.2l-.3-.6c-.8-1.5-1.6-3.1-2.4-4.7a28.74,28.74,0,0,0-3.6-5.5A16.15,16.15,0,0,0,46.51,0a16.78,16.78,0,0,0-12.8,6,34.47,34.47,0,0,0-3.6,5.5c-.8,1.6-1.6,3.2-2.4,4.7l-.3.6C19.71,31.8,12.21,47,5.31,62l-.1.2c-.7,1.6-1.5,3.3-2.3,5.1Q2.16,69,1.41,70.9A22.46,22.46,0,0,0,.21,81.7a21.25,21.25,0,0,0,13,16.6,20.54,20.54,0,0,0,8.1,1.6,22.75,22.75,0,0,0,2.6-.2,26.42,26.42,0,0,0,10-3.4c4.1-2.3,8-5.6,12.4-10.4a52.55,52.55,0,0,0,12.4,10.4,26.42,26.42,0,0,0,10,3.4,22.75,22.75,0,0,0,2.6.2,20.19,20.19,0,0,0,8.1-1.6,21.21,21.21,0,0,0,13-16.6A18.89,18.89,0,0,0,91.51,71Zm-45.1,5.2C41,69.4,37.51,63,36.31,57.6a16.13,16.13,0,0,1-.3-6.1,9.7,9.7,0,0,1,1.6-4.2,10.62,10.62,0,0,1,8.8-4.4,10.24,10.24,0,0,1,8.8,4.4,9.7,9.7,0,0,1,1.6,4.2,16.05,16.05,0,0,1-.3,6.1C55.31,62.9,51.81,69.3,46.41,76.2Zm39.9,4.7a14.86,14.86,0,0,1-9.1,11.7,15.14,15.14,0,0,1-7.6,1A19.67,19.67,0,0,1,62,91c-3.6-2-7.2-5.1-11.4-9.7,6.6-8.1,10.6-15.5,12.1-22.1a25.06,25.06,0,0,0,.5-8.5,16.23,16.23,0,0,0-2.7-6.8,16.85,16.85,0,0,0-14.1-7.1,17.11,17.11,0,0,0-14.1,7.1,16.23,16.23,0,0,0-2.7,6.8,20.76,20.76,0,0,0,.5,8.5c1.5,6.6,5.6,14.1,12.1,22.2a44.93,44.93,0,0,1-11.4,9.7,19.67,19.67,0,0,1-7.6,2.6,16,16,0,0,1-7.6-1A14.86,14.86,0,0,1,6.51,81a16.55,16.55,0,0,1,.9-7.8c.3-1,.8-2,1.3-3.2.7-1.6,1.5-3.3,2.3-5l.1-.2c6.9-14.9,14.3-30.1,22-44.9l.3-.6c.8-1.5,1.6-3.1,2.4-4.6a22,22,0,0,1,2.8-4.4,10.5,10.5,0,0,1,16,0,22,22,0,0,1,2.8,4.4c.8,1.5,1.6,3.1,2.4,4.6l.3.6c7.6,14.9,15,30.1,21.9,45V65c.8,1.6,1.5,3.4,2.3,5,.5,1.2,1,2.2,1.3,3.2A16.9,16.9,0,0,1,86.31,80.9Z"/></svg>